<svg xmlns="http://www.w3.org/2000/svg" xmlns:svgjs="http://svgjs.dev/svgjs" xmlns:xlink="http://www.w3.org/1999/xlink" width="1000" height="1000" version="1.1"><style>#light-icon{display:inline}#dark-icon{display:none}@media (prefers-color-scheme:dark){#light-icon{display:none}#dark-icon{display:inline}}</style><g id="light-icon"><svg xmlns="http://www.w3.org/2000/svg" xmlns:svgjs="http://svgjs.dev/svgjs" xmlns:xlink="http://www.w3.org/1999/xlink" width="1000" height="1000" version="1.1"><g><g transform="matrix(5.714285714285714,0,0,5.714285714285714,0,0)"><svg xmlns="http://www.w3.org/2000/svg" xmlns:svgjs="http://svgjs.dev/svgjs" xmlns:xlink="http://www.w3.org/1999/xlink" width="175" height="175" version="1.1"><svg xmlns="http://www.w3.org/2000/svg" id="Layer_1" data-name="Layer 1" viewBox="0 0 175 175"><defs><style>.cls-1,.cls-2{fill:#f0f}.cls-3{fill:#00f}.cls-2{opacity:.5}</style></defs><rect width="24.23" height="140.77" x="50.86" y="-18.41" class="cls-2" rx="12.11" ry="12.11" transform="translate(142.54 33.58) rotate(127.44)"/><rect width="24.23" height="166.44" x="75.7" y="-66.67" class="cls-2" rx="12.11" ry="12.11" transform="translate(71.27 104.36) rotate(-90)"/><rect width="24.23" height="140.82" x="50.79" y="52.38" class="cls-2" rx="12.11" ry="12.11" transform="translate(3.66 247.4) rotate(-127.44)"/><rect width="24.23" height="134.38" x="91.44" y="91.19" class="cls-1" rx="12.11" ry="12.11" transform="translate(-54.83 261.94) rotate(-90)"/><path d="M169.86,11.67h0c2.87,6.32.29,13.86-5.77,16.86L22.25,98.68c-6.05,2.99-13.29.3-16.16-6.02h0c-2.87-6.32-.29-13.86,5.77-16.86L153.7,5.66c6.05-2.99,13.29-.3,16.16,6.02Z" class="cls-3"/><path d="M169.77,163.26h0c2.87-6.32.29-13.86-5.77-16.86L22.16,76.24c-6.05-2.99-13.29-.3-16.16,6.02h0c-2.87,6.32-.29,13.86,5.77,16.86l141.84,70.15c6.05,2.99,13.29.3,16.16-6.02Z" class="cls-3"/><rect width="24.23" height="58.15" x="146.48" y="112.34" class="cls-3" rx="12.11" ry="12.11" transform="translate(317.19 282.84) rotate(180)"/><rect width="24.23" height="58.15" x="146.8" y="4.44" class="cls-3" rx="12.11" ry="12.11" transform="translate(317.84 67.03) rotate(180)"/><circle cx="16.44" cy="158.38" r="12.19" class="cls-1"/></svg></svg></g></g></svg></g><g id="dark-icon"><svg xmlns="http://www.w3.org/2000/svg" xmlns:svgjs="http://svgjs.dev/svgjs" xmlns:xlink="http://www.w3.org/1999/xlink" width="1000" height="1000" version="1.1"><g clip-path="url(#SvgjsClipPath1016)"><rect width="1000" height="1000" fill="#fff"/><g transform="matrix(4,0,0,4,150,150)"><svg xmlns="http://www.w3.org/2000/svg" xmlns:svgjs="http://svgjs.dev/svgjs" xmlns:xlink="http://www.w3.org/1999/xlink" width="175" height="175" version="1.1"><svg xmlns="http://www.w3.org/2000/svg" id="Layer_1" data-name="Layer 1" viewBox="0 0 175 175"><defs><style>.cls-1,.cls-2{fill:#f0f}.cls-3{fill:#00f}.cls-2{opacity:.5}</style><clipPath id="SvgjsClipPath1016"><rect width="1000" height="1000" x="0" y="0" rx="300" ry="300"/></clipPath></defs><rect width="24.23" height="140.77" x="50.86" y="-18.41" class="cls-2" rx="12.11" ry="12.11" transform="translate(142.54 33.58) rotate(127.44)"/><rect width="24.23" height="166.44" x="75.7" y="-66.67" class="cls-2" rx="12.11" ry="12.11" transform="translate(71.27 104.36) rotate(-90)"/><rect width="24.23" height="140.82" x="50.79" y="52.38" class="cls-2" rx="12.11" ry="12.11" transform="translate(3.66 247.4) rotate(-127.44)"/><rect width="24.23" height="134.38" x="91.44" y="91.19" class="cls-1" rx="12.11" ry="12.11" transform="translate(-54.83 261.94) rotate(-90)"/><path d="M169.86,11.67h0c2.87,6.32.29,13.86-5.77,16.86L22.25,98.68c-6.05,2.99-13.29.3-16.16-6.02h0c-2.87-6.32-.29-13.86,5.77-16.86L153.7,5.66c6.05-2.99,13.29-.3,16.16,6.02Z" class="cls-3"/><path d="M169.77,163.26h0c2.87-6.32.29-13.86-5.77-16.86L22.16,76.24c-6.05-2.99-13.29-.3-16.16,6.02h0c-2.87,6.32-.29,13.86,5.77,16.86l141.84,70.15c6.05,2.99,13.29.3,16.16-6.02Z" class="cls-3"/><rect width="24.23" height="58.15" x="146.48" y="112.34" class="cls-3" rx="12.11" ry="12.11" transform="translate(317.19 282.84) rotate(180)"/><rect width="24.23" height="58.15" x="146.8" y="4.44" class="cls-3" rx="12.11" ry="12.11" transform="translate(317.84 67.03) rotate(180)"/><circle cx="16.44" cy="158.38" r="12.19" class="cls-1"/></svg></svg></g></g></svg></g></svg>