<svg xmlns="http://www.w3.org/2000/svg" id="Layer_1" data-name="Layer 1" viewBox="0 0 850 204"><defs><style>.cls-1,.cls-2{fill:#f0f}.cls-3{font-family:Galvji,Galvji;font-size:47.91px}.cls-3,.cls-4{fill:#231f20}.cls-5{fill:#00f}.cls-2{opacity:.5}.cls-4{font-family:Galvji-Bold,Galvji;font-size:75.75px;font-weight:700}</style></defs><text class="cls-3" transform="translate(217.75 151.85) scale(.98 1)"><tspan x="0" y="0">Education</tspan></text><text class="cls-4" transform="translate(219.74 106.5) scale(.98 1)"><tspan x="0" y="0">Axiom</tspan></text><rect width="24.23" height="140.77" x="83.53" y="-2.28" class="cls-2" rx="12.11" ry="12.11" transform="translate(207.87 33.59) rotate(127.44)"/><rect width="24.23" height="166.44" x="108.36" y="-50.54" class="cls-2" rx="12.11" ry="12.11" transform="translate(87.8 153.16) rotate(-90)"/><rect width="24.23" height="140.82" x="83.45" y="68.52" class="cls-2" rx="12.11" ry="12.11" transform="translate(43.37 299.27) rotate(-127.44)"/><rect width="24.23" height="134.38" x="124.1" y="107.32" class="cls-1" rx="12.11" ry="12.11" transform="translate(-38.3 310.73) rotate(-90)"/><circle cx="49.1" cy="174.52" r="12.19" class="cls-1"/><path d="M202.52,27.81h0c2.87,6.32.29,13.86-5.77,16.86L54.91,114.82c-6.05,2.99-13.29.3-16.16-6.02h0c-2.87-6.32-.29-13.86,5.77-16.86L186.36,21.79c6.05-2.99,13.29-.3,16.16,6.02Z" class="cls-5"/><path d="M202.2,179.28h0c2.87-6.32.3-13.86-5.75-16.85L54.81,92.37c-6.05-2.99-13.27-.29-16.14,6.02h0c-2.87,6.32-.3,13.86,5.75,16.85l141.64,70.06c6.05,2.99,13.27.29,16.14-6.02Z" class="cls-5"/><rect width="24.23" height="58.15" x="179.65" y="128.48" class="cls-5" rx="12.11" ry="12.11" transform="translate(383.53 315.11) rotate(-180)"/><rect width="24.23" height="58.15" x="179.47" y="20.57" class="cls-5" rx="12.11" ry="12.11" transform="translate(383.16 99.29) rotate(-180)"/></svg>